{"title":"Iron.Man.3.2013.R6.HDScr.LINE.NoSUBS.NoBLURS.XViD.AC3.HQ.Hive-CM","uid":8491324,"size":1943266280,"categoryP":"video","categoryS":"movies","magnet":"?xt=urn:btih:48a347ed6b54e9c408e3da04ca65361046b2bb05&amp;dn=Iron.Man.3.2013.R6.HDScr.LINE.NoSUBS.NoBLURS.XViD.AC3.HQ.Hive-CM&amp;tr=udp%3A%2F%2Ftracker.openbittorrent.com%3A80&amp;tr=udp%3A%2F%2Fopen.demonii.com%3A1337&amp;tr=udp%3A%2F%2Ftracker.coppersurfer.tk%3A6969&amp;tr=udp%3A%2F%2Fexodus.desync.com%3A6969","seeders":3,"leechers":0,"uploader":"R0thschild","files":5,"time":1369010345,"description":"\n              ***********************************************\n\n                PublicHash - Largest Bittorrent Community\n      \n                         &lt;a href=&quot; http://publichash.com/&quot; rel=&quot;nofollow&quot; target=&quot;_NEW&quot;&gt; http://publichash.com/&lt;/a&gt;\n    \n              ***********************************************\n\nIron.Man.3.2013.R6.HDScr.LINE.NoSUBS.NoBLURS.XViD.AC3.HQ.Hive-CM8\n\nSources:\n\nVideo: 3 different Chinese R6 720p versions including Smy/PDA\nAudio: Unique-Goldenbears Line and Unknowns Line too\nthx to all involved in this final version\n\nEncode:\n\nwell this nfo gonna be a bit longer\nI worked a week on this movie, i can tell you it was not funny, but the result is totally worth it\n\nVideo:\n\nthe chinese source video was hidden well, i had an amazing hd source from day one which hasnt still surfaced yet\nbut it was subbed with 3 nice lines, makes it hard to watch, tried cropping didnt look good, so went to the trash\n\nsmy versions were nice but subbed too, found 3 different videos all same source but either watermarked to death or subbed inside the video\nthe blurred version was out too, found that all over the net, didnt like that either\n\nfinally i found the source video totally unmarked but was done at wrong framerate, but it was jittering like crazy, tried everything to get\nit in shape no luck on it\n\nout of the blue i finally found another hd version that was done professionally, all 3 sublines were added below the hd video\nthe highest sub was hardly touching the video at the bottom, so i only needed to crop 4 lines and no subs were visible anymore\nthats the mainbody for my moviefile, but the video was watermarked on 8 spots\n\nso to get a perfect version i had no other choice than to replace the 8 watermark spots with unmarked video from the other hd versions\n\ncomplicated was piecing it together with a single resolution/framerate/brightness/contrast and colouring along with sharpness\nwhile i was at it i also decided to insert the afterendcredits scene which came as single files from somewhere(thx for that too)\ninto my video\n\nso its one complete movie now, all is in one file like seen in cinema\n\nAudio:\n\nthere were 2 lines out, uniques and unknowns\nuniques line had more depth so i chose it\nbut it was crackling all over, removing the crackles was easy only took me 4h\nthe distortions on the other hand arent fixable without drowning the voices, found them on 11 spots around 10secs each\nreplaced them with unknowns line\nso mainbody is the cleaned uniques line, filled in with spots from unknown\n\nSyncing:\n\nafter i had my complete video i had to sync audio to it, which wasnt easy either, i wanted to do the perfect video with lipsync audio\nwhich i finally managed to do in one day\n\nThe Result is great, looks like a dvdrip now\nnothing is blurred,there are no white subs in it, only the yellow one which were already hardcoded in the r6 for translating english onscreen-text\nThe audio is clear and retailish, and the afterendcredits bonus scene is within the mainvideo after the endcredits rollout\n\ngot very nice\nThis will do me till retail, and it looks perfect on 52&quot; tv\n\nPS: additional thx to Unique and all others involved i might have forgotten to mention\n\nEnjoy\n\nVideo: 720x288 @bitrate 1700 2pass\nAudio: English Line 2.0 Stereo\nSample: yes 2 included &lt;a href=&quot;\nhttp://www.imdb.com/title/tt1300854/&quot; rel=&quot;nofollow&quot; target=&quot;_NEW&quot;&gt;\nhttp://www.imdb.com/title/tt1300854/&lt;/a&gt;\n\nGeneral\nComplete name: Iron.Man.3.2013.R6.HDScr.LINE.NoSUBS.NoBLURS.XViD.AC3.HQ.Hive-CM8.avi\nFormat: AVI\nFormat/Info: Audio Video Interleave\nFile size: 1.79 GiB\nDuration: 2h 10mn\nOverall bit rate: 1 970 Kbps\nWriting application: Nandub v1.0rc2\nWriting library: Nandub build 1853/release\n\nVideo\nID: 0\nFormat: MPEG-4 Visual\nFormat profile: Advanced Simple@L5\nFormat settings, BVOP: 2\nFormat settings, QPel: Yes\nFormat settings, GMC: No warppoints\nFormat settings, Matrix: Default (H.263)\nMuxing mode: Packed bitstream\nCodec ID: XVID\nCodec ID/Hint: XviD\nDuration: 2h 10mn\nBit rate: 1 702 Kbps\nWidth: 720 pixels\nHeight: 288 pixels\nDisplay aspect ratio: 2.500\nFrame rate: 29.970 fps\nColor space: YUV\nChroma subsampling: 4:2:0\nBit depth: 8 bits\nScan type: Progressive\nCompression mode: Lossy\nBits/(Pixel*Frame): 0.274\nStream size: 1.55 GiB (86%)\nWriting library: XviD 1.2.1 (UTC 2008-12-04)\n\nAudio\nID: 1\nFormat: AC-3\nFormat/Info: Audio Coding 3\nMode extension: CM (complete main)\nFormat settings, Endianness: Big\nCodec ID: 2000\nDuration: 2h 10mn\nBit rate mode: Constant\nBit rate: 256 Kbps\nChannel(s): 2 channels\nChannel positions: Front: L R\nSampling rate: 48.0 KHz\nBit depth: 16 bits\nCompression mode: Lossy\nDelay relative to video: 14ms\nStream size: 238 MiB (13%)\nAlignment: Split accross interleaves\nInterleave, duration: 33 ms (1.00 video frame)\nInterleave, preload duration: 500 ms\n\nPlot:\n\nWhen Tony Stark's world is torn apart by a formidable terrorist called the Mandarin, he starts an odyssey of rebuilding and retribution\n\nCast:\n\nRobert Downey Jr. ... Tony Stark\nGwyneth Paltrow ... Pepper Potts\nDon Cheadle ... Colonel James Rhodes\nGuy Pearce ... Aldrich Killian ","torrent":{"xt":"urn:btih:48a347ed6b54e9c408e3da04ca65361046b2bb05","amp;dn":"Iron.Man.3.2013.R6.HDScr.LINE.NoSUBS.NoBLURS.XViD.AC3.HQ.Hive-CM","amp;tr":["udp%3A%2F%2Ftracker.openbittorrent.com%3A80","udp%3A%2F%2Fopen.demonii.com%3A1337","udp%3A%2F%2Ftracker.coppersurfer.tk%3A6969","udp%3A%2F%2Fexodus.desync.com%3A6969"],"infoHash":"48a347ed6b54e9c408e3da04ca65361046b2bb05","infoHashBuffer":{"type":"Buffer","data":[72,163,71,237,107,84,233,196,8,227,218,4,202,101,54,16,70,178,187,5]},"announce":[],"urlList":[]}}